<?xml version="1.0" encoding="utf-8"?>
<!-- Generator: Adobe Illustrator 16.0.0, SVG Export Plug-In . SVG Version: 6.00 Build 0)  -->
<!DOCTYPE svg PUBLIC "-//W3C//DTD SVG 1.1//EN" "http://www.w3.org/Graphics/SVG/1.1/DTD/svg11.dtd">
<svg version="1.1" id="Layer_1" xmlns="http://www.w3.org/2000/svg" xmlns:xlink="http://www.w3.org/1999/xlink" x="0px" y="0px"
	 width="912px" height="291px" viewBox="0 0 912 291" enable-background="new 0 0 912 291" xml:space="preserve">
<path fill="none" stroke="#BBBBBB" stroke-miterlimit="10" d="M737.836,271.898c45.779,0.267,68.559-14,81.559-46.104"/>
<g>
	<rect x="797.395" y="187.898" fill="none" width="81.605" height="53.896"/>
	<path fill="#BBBBBB" d="M798.137,194.379c0-2.55,0.841-3.74,2.983-3.74c2.144,0,2.984,1.19,2.984,3.74
		c0,2.549-0.841,3.739-2.984,3.739C798.978,198.118,798.137,196.928,798.137,194.379z M803.544,194.379
		c0-1.947-0.406-3.236-2.424-3.236c-2.017,0-2.423,1.289-2.423,3.236c0,1.946,0.406,3.235,2.423,3.235
		C803.138,197.614,803.544,196.325,803.544,194.379z"/>
	<path fill="#BBBBBB" d="M810.628,197.95v-3.88c0-1.723-0.252-2.928-1.877-2.928c-1.219,0-1.779,0.631-2.325,1.723v5.085h-0.561
		v-5.28c0-0.617-0.07-1.275-0.224-1.836l0.49-0.084c0.14,0.379,0.224,0.826,0.252,1.303c0.49-0.854,1.135-1.414,2.451-1.414
		c2.06,0,2.354,1.736,2.354,3.264v4.048H810.628z"/>
	<path fill="#BBBBBB" d="M818.132,197.559c-0.672,0.406-1.442,0.56-2.325,0.56c-1.639,0-2.97-0.687-2.97-3.726
		c0-3.278,1.541-3.754,2.857-3.754c1.695,0,2.731,0.924,2.731,3.74v0.055l-5.015,0.406c0.084,2.298,1.106,2.774,2.409,2.774
		c0.785,0,1.43-0.154,2.102-0.532L818.132,197.559z M817.852,193.973c-0.027-2.158-0.868-2.83-2.157-2.83
		c-1.19,0-2.297,0.463-2.297,3.054v0.14L817.852,193.973z"/>
	<path fill="#BBBBBB" d="M827.917,198.006c-0.14-0.378-0.224-0.826-0.252-1.303c-0.49,0.855-1.135,1.415-2.451,1.415
		c-2.059,0-2.354-1.737-2.354-3.264v-3.964l0.561-0.084v3.88c0,1.723,0.252,2.928,1.877,2.928c1.219,0,1.779-0.63,2.325-1.724v-5
		l0.561-0.084v5.281c0,0.615,0.07,1.273,0.224,1.834L827.917,198.006z"/>
	<path fill="#BBBBBB" d="M834.987,197.95v-3.88c0-1.723-0.252-2.928-1.877-2.928c-1.219,0-1.779,0.631-2.325,1.723v5.085h-0.561
		v-5.28c0-0.617-0.07-1.275-0.224-1.836l0.49-0.084c0.14,0.379,0.224,0.826,0.252,1.303c0.49-0.854,1.135-1.414,2.451-1.414
		c2.06,0,2.354,1.736,2.354,3.264v4.048H834.987z"/>
	<path fill="#BBBBBB" d="M837.406,188.859c0-0.266,0.154-0.393,0.421-0.393c0.266,0,0.42,0.127,0.42,0.393s-0.154,0.393-0.42,0.393
		C837.561,189.252,837.406,189.125,837.406,188.859z M837.785,197.95c-0.196-0.687-0.238-1.541-0.238-2.479v-4.58l0.561-0.084v4.692
		c0,0.868,0.042,1.765,0.237,2.451H837.785z"/>
	<path fill="#BBBBBB" d="M841.93,198.02l-2.381-7.157l0.588-0.112l2.115,6.668l2.129-6.668l0.547,0.127l-2.354,7.143H841.93z"/>
	<path fill="#BBBBBB" d="M851.172,197.559c-0.672,0.406-1.442,0.56-2.325,0.56c-1.639,0-2.97-0.687-2.97-3.726
		c0-3.278,1.541-3.754,2.857-3.754c1.695,0,2.731,0.924,2.731,3.74v0.055l-5.015,0.406c0.084,2.298,1.106,2.774,2.409,2.774
		c0.785,0,1.429-0.154,2.102-0.532L851.172,197.559z M850.892,193.973c-0.027-2.158-0.868-2.83-2.157-2.83
		c-1.19,0-2.297,0.463-2.297,3.054v0.14L850.892,193.973z"/>
	<path fill="#BBBBBB" d="M853.199,197.95v-5.28c0-0.617-0.07-1.275-0.224-1.836l0.49-0.084c0.14,0.379,0.224,0.967,0.252,1.457
		c0.448-0.896,1.078-1.429,2.213-1.555l0.07,0.616c-1.19,0.07-1.709,0.673-2.241,1.724v4.958H853.199z"/>
	<path fill="#BBBBBB" d="M859.472,197.614c0.938,0,1.793-0.378,1.793-1.556c0-0.98-0.882-1.204-1.961-1.498
		c-1.135-0.309-2.087-0.715-2.087-2.059c0-1.346,1.064-1.863,2.213-1.863c0.658,0,1.331,0.07,1.961,0.392l-0.21,0.477
		c-0.518-0.267-1.12-0.364-1.736-0.364c-0.953,0-1.682,0.309-1.682,1.373c0,0.924,0.659,1.219,1.779,1.526
		c1.219,0.351,2.27,0.658,2.27,2.017c0,1.514-1.079,2.06-2.312,2.06c-0.952,0-1.821-0.183-2.535-0.658l0.238-0.462
		C857.819,197.39,858.632,197.614,859.472,197.614z"/>
	<path fill="#BBBBBB" d="M868.083,198.006c-0.14-0.378-0.224-0.826-0.252-1.303c-0.49,0.855-1.135,1.415-2.451,1.415
		c-1.821,0-2.354-0.841-2.354-2.045c0-1.694,1.485-2.087,4.763-2.214v-0.168c0-1.904-0.91-2.535-2.031-2.535
		c-0.714,0-1.387,0.112-1.989,0.463l-0.21-0.49c0.631-0.379,1.429-0.49,2.256-0.49c1.442,0,2.535,0.84,2.535,2.898v2.551
		c0,0.615,0.07,1.273,0.224,1.834L868.083,198.006z M867.789,194.379c-2.773,0.14-4.188,0.336-4.188,1.709
		c0,1.064,0.477,1.526,1.863,1.526c1.219,0,1.779-0.63,2.325-1.724V194.379z"/>
	<path fill="#BBBBBB" d="M870.671,197.95c-0.196-0.687-0.238-1.541-0.238-2.479v-7.494l0.561-0.084v7.606
		c0,0.868,0.042,1.765,0.237,2.451H870.671z"/>
	<path fill="#BBBBBB" d="M798.417,205.977l0.561-0.084v4.146c0.49-0.91,1.12-1.4,2.381-1.4c1.808,0,2.521,1.4,2.521,3.74
		c0,3.15-1.429,3.739-2.844,3.739c-0.896,0-1.835-0.112-2.619-0.392V205.977z M801.036,215.614c1.233,0,2.283-0.505,2.283-3.235
		c0-2.018-0.49-3.236-2.045-3.236c-1.219,0-1.751,0.631-2.297,1.723v4.455C799.594,215.559,800.294,215.614,801.036,215.614z"/>
	<path fill="#BBBBBB" d="M810.585,216.006c-0.14-0.378-0.224-0.826-0.252-1.303c-0.49,0.855-1.135,1.415-2.451,1.415
		c-2.059,0-2.354-1.737-2.354-3.264v-3.964l0.561-0.084v3.88c0,1.723,0.252,2.928,1.877,2.928c1.219,0,1.779-0.63,2.325-1.724v-5
		l0.561-0.084v5.281c0,0.615,0.07,1.273,0.224,1.834L810.585,216.006z"/>
	<path fill="#BBBBBB" d="M814.741,216.118c-1.078-0.882-1.218-1.821-1.218-3.754v-3.04h-1.303v-0.518h1.303v-2.256l0.56-0.084v2.34
		h1.653l-0.07,0.518h-1.583v3.307c0,1.372,0.028,2.297,1.051,3.123L814.741,216.118z"/>
	<path fill="#BBBBBB" d="M819.025,216.118c-1.078-0.882-1.218-1.821-1.218-3.754v-3.04h-1.303v-0.518h1.303v-2.256l0.56-0.084v2.34
		h1.653l-0.07,0.518h-1.583v3.307c0,1.372,0.028,2.297,1.051,3.123L819.025,216.118z"/>
	<path fill="#BBBBBB" d="M820.971,212.379c0-2.55,0.841-3.74,2.983-3.74c2.144,0,2.984,1.19,2.984,3.74
		c0,2.549-0.841,3.739-2.984,3.739C821.812,216.118,820.971,214.928,820.971,212.379z M826.378,212.379
		c0-1.947-0.406-3.236-2.424-3.236c-2.017,0-2.423,1.289-2.423,3.236c0,1.946,0.406,3.235,2.423,3.235
		C825.972,215.614,826.378,214.325,826.378,212.379z"/>
	<path fill="#BBBBBB" d="M833.462,215.95v-3.88c0-1.723-0.252-2.928-1.877-2.928c-1.219,0-1.779,0.631-2.325,1.723v5.085h-0.561
		v-5.28c0-0.617-0.07-1.275-0.224-1.836l0.49-0.084c0.14,0.379,0.224,0.826,0.252,1.303c0.49-0.854,1.135-1.414,2.451-1.414
		c2.06,0,2.354,1.736,2.354,3.264v4.048H833.462z"/>
</g>
<g>
	<rect x="29.395" y="38.898" fill="none" width="153.605" height="120"/>
	<path fill="#BBBBBB" d="M32.504,48.614c0.938,0,1.793-0.378,1.793-1.555c0-0.98-0.883-1.205-1.961-1.499
		c-1.134-0.309-2.087-0.714-2.087-2.059s1.064-1.863,2.213-1.863c0.658,0,1.331,0.07,1.961,0.392l-0.21,0.477
		c-0.518-0.266-1.12-0.364-1.737-0.364c-0.953,0-1.681,0.308-1.681,1.373c0,0.925,0.658,1.219,1.779,1.527
		c1.219,0.35,2.269,0.658,2.269,2.017c0,1.513-1.079,2.059-2.311,2.059c-0.953,0-1.821-0.182-2.535-0.658l0.238-0.462
		C30.852,48.39,31.664,48.614,32.504,48.614z"/>
	<path fill="#BBBBBB" d="M41.466,48.558c-0.672,0.406-1.442,0.56-2.325,0.56c-1.639,0-2.97-0.686-2.97-3.726
		c0-3.278,1.541-3.754,2.858-3.754c1.695,0,2.731,0.924,2.731,3.74v0.056l-5.015,0.406c0.084,2.297,1.106,2.774,2.409,2.774
		c0.784,0,1.429-0.154,2.101-0.533L41.466,48.558z M41.186,44.972c-0.028-2.157-0.869-2.83-2.157-2.83
		c-1.191,0-2.297,0.462-2.297,3.054v0.14L41.186,44.972z"/>
	<path fill="#BBBBBB" d="M48.018,49.006c-0.14-0.378-0.224-0.827-0.252-1.303c-0.49,0.854-1.135,1.415-2.451,1.415
		c-1.821,0-2.354-0.84-2.354-2.045c0-1.695,1.485-2.087,4.763-2.213v-0.168c0-1.905-0.911-2.535-2.031-2.535
		c-0.714,0-1.387,0.112-1.989,0.462l-0.21-0.49c0.63-0.378,1.429-0.49,2.255-0.49c1.443,0,2.536,0.84,2.536,2.899v2.55
		c0,0.616,0.07,1.274,0.224,1.835L48.018,49.006z M47.724,45.378c-2.773,0.14-4.188,0.336-4.188,1.709
		c0,1.064,0.476,1.527,1.863,1.527c1.219,0,1.779-0.63,2.325-1.723V45.378z"/>
	<path fill="#BBBBBB" d="M59.542,48.95v-3.88c0-1.723-0.224-2.928-1.835-2.928c-1.191,0-1.779,0.616-2.227,1.723v5.085h-0.561v-4.51
		c0-1.597-0.63-2.297-1.835-2.297c-1.19,0-1.695,0.63-2.227,1.723v5.085h-0.561v-5.281c0-0.616-0.07-1.275-0.224-1.835l0.49-0.084
		c0.14,0.378,0.224,0.826,0.252,1.303c0.49-0.869,1.079-1.415,2.353-1.415c1.219,0,1.905,0.701,2.101,1.639
		c0.519-1.191,1.275-1.639,2.521-1.639c1.779,0,2.311,1.261,2.311,3.264v4.048H59.542z"/>
	<path fill="#BBBBBB" d="M62.337,48.95c-0.196-0.687-0.238-1.541-0.238-2.479v-7.494l0.56-0.084v7.606
		c0,0.868,0.042,1.765,0.238,2.451H62.337z"/>
	<path fill="#BBBBBB" d="M69.773,48.558c-0.672,0.406-1.442,0.56-2.325,0.56c-1.639,0-2.97-0.686-2.97-3.726
		c0-3.278,1.541-3.754,2.858-3.754c1.695,0,2.731,0.924,2.731,3.74v0.056l-5.015,0.406c0.084,2.297,1.106,2.774,2.409,2.774
		c0.784,0,1.429-0.154,2.101-0.533L69.773,48.558z M69.494,44.972c-0.028-2.157-0.869-2.83-2.157-2.83
		c-1.191,0-2.297,0.462-2.297,3.054v0.14L69.494,44.972z"/>
	<path fill="#BBBBBB" d="M73.888,48.614c0.938,0,1.793-0.378,1.793-1.555c0-0.98-0.883-1.205-1.961-1.499
		c-1.134-0.309-2.087-0.714-2.087-2.059s1.064-1.863,2.213-1.863c0.658,0,1.331,0.07,1.961,0.392l-0.21,0.477
		c-0.518-0.266-1.12-0.364-1.737-0.364c-0.953,0-1.681,0.308-1.681,1.373c0,0.925,0.658,1.219,1.779,1.527
		c1.219,0.35,2.269,0.658,2.269,2.017c0,1.513-1.079,2.059-2.311,2.059c-0.953,0-1.821-0.182-2.535-0.658l0.238-0.462
		C72.235,48.39,73.047,48.614,73.888,48.614z"/>
	<path fill="#BBBBBB" d="M79.922,48.614c0.938,0,1.793-0.378,1.793-1.555c0-0.98-0.883-1.205-1.961-1.499
		c-1.134-0.309-2.087-0.714-2.087-2.059s1.064-1.863,2.213-1.863c0.658,0,1.331,0.07,1.961,0.392l-0.21,0.477
		c-0.518-0.266-1.12-0.364-1.737-0.364c-0.953,0-1.681,0.308-1.681,1.373c0,0.925,0.658,1.219,1.779,1.527
		c1.219,0.35,2.269,0.658,2.269,2.017c0,1.513-1.079,2.059-2.311,2.059c-0.953,0-1.821-0.182-2.535-0.658l0.238-0.462
		C78.27,48.39,79.082,48.614,79.922,48.614z"/>
	<path fill="#BBBBBB" d="M86.613,39.859c0-0.266,0.154-0.392,0.42-0.392s0.42,0.126,0.42,0.392s-0.154,0.392-0.42,0.392
		S86.613,40.125,86.613,39.859z M86.991,48.95c-0.196-0.687-0.238-1.541-0.238-2.479v-4.58l0.56-0.084v4.693
		c0,0.868,0.042,1.765,0.238,2.451H86.991z"/>
	<path fill="#BBBBBB" d="M94.19,48.95v-3.88c0-1.723-0.252-2.928-1.877-2.928c-1.219,0-1.779,0.63-2.325,1.723v5.085h-0.561v-5.281
		c0-0.616-0.07-1.275-0.224-1.835l0.49-0.084c0.14,0.378,0.224,0.826,0.252,1.303c0.49-0.854,1.134-1.415,2.451-1.415
		c2.059,0,2.353,1.737,2.353,3.264v4.048H94.19z"/>
	<path fill="#BBBBBB" d="M98.528,49.118c-1.079-0.882-1.219-1.821-1.219-3.754v-3.04h-1.303v-0.519h1.303v-2.255l0.561-0.084v2.339
		h1.653l-0.07,0.519H97.87v3.306c0,1.373,0.028,2.297,1.05,3.124L98.528,49.118z"/>
	<path fill="#BBBBBB" d="M105.768,48.558c-0.672,0.406-1.443,0.56-2.325,0.56c-1.639,0-2.97-0.686-2.97-3.726
		c0-3.278,1.541-3.754,2.858-3.754c1.695,0,2.731,0.924,2.731,3.74v0.056l-5.015,0.406c0.084,2.297,1.106,2.774,2.409,2.774
		c0.784,0,1.429-0.154,2.101-0.533L105.768,48.558z M105.488,44.972c-0.028-2.157-0.869-2.83-2.157-2.83
		c-1.191,0-2.297,0.462-2.297,3.054v0.14L105.488,44.972z"/>
	<path fill="#BBBBBB" d="M110.527,50.771c1.401,0,1.891-0.868,1.891-2.087v-0.953c-0.49,0.911-1.121,1.387-2.381,1.387
		c-1.807,0-2.521-1.4-2.521-3.74c0-3.152,1.429-3.74,2.844-3.74c0.896,0,1.835,0.112,2.62,0.392v6.682
		c0,1.555-0.729,2.563-2.41,2.563c-0.714,0-1.4-0.098-2.003-0.378l0.196-0.504C109.322,50.659,109.925,50.771,110.527,50.771z
		 M112.418,42.437c-0.616-0.238-1.317-0.294-2.059-0.294c-1.233,0-2.283,0.504-2.283,3.236c0,2.017,0.49,3.236,2.045,3.236
		c1.219,0,1.751-0.63,2.297-1.723V42.437z"/>
	<path fill="#BBBBBB" d="M115.02,48.95v-5.281c0-0.616-0.07-1.275-0.224-1.835l0.49-0.084c0.14,0.378,0.224,0.966,0.252,1.457
		c0.448-0.896,1.079-1.429,2.213-1.555l0.07,0.616c-1.191,0.07-1.709,0.672-2.241,1.723v4.958H115.02z"/>
	<path fill="#BBBBBB" d="M123.59,49.006c-0.14-0.378-0.224-0.827-0.252-1.303c-0.49,0.854-1.135,1.415-2.451,1.415
		c-1.821,0-2.354-0.84-2.354-2.045c0-1.695,1.485-2.087,4.763-2.213v-0.168c0-1.905-0.911-2.535-2.031-2.535
		c-0.714,0-1.387,0.112-1.989,0.462l-0.21-0.49c0.63-0.378,1.429-0.49,2.255-0.49c1.443,0,2.536,0.84,2.536,2.899v2.55
		c0,0.616,0.07,1.274,0.224,1.835L123.59,49.006z M123.296,45.378c-2.773,0.14-4.188,0.336-4.188,1.709
		c0,1.064,0.476,1.527,1.863,1.527c1.219,0,1.779-0.63,2.325-1.723V45.378z"/>
	<path fill="#BBBBBB" d="M127.718,49.118c-1.079-0.882-1.219-1.821-1.219-3.754v-3.04h-1.303v-0.519h1.303v-2.255l0.561-0.084v2.339
		h1.653l-0.07,0.519h-1.583v3.306c0,1.373,0.028,2.297,1.05,3.124L127.718,49.118z"/>
	<path fill="#BBBBBB" d="M130.083,39.859c0-0.266,0.154-0.392,0.42-0.392s0.42,0.126,0.42,0.392s-0.154,0.392-0.42,0.392
		S130.083,40.125,130.083,39.859z M130.461,48.95c-0.196-0.687-0.238-1.541-0.238-2.479v-4.58l0.56-0.084v4.693
		c0,0.868,0.042,1.765,0.238,2.451H130.461z"/>
	<path fill="#BBBBBB" d="M132.617,45.378c0-2.549,0.841-3.74,2.984-3.74s2.983,1.191,2.983,3.74s-0.84,3.74-2.983,3.74
		S132.617,47.928,132.617,45.378z M138.024,45.378c0-1.947-0.406-3.236-2.423-3.236s-2.423,1.289-2.423,3.236
		c0,1.947,0.406,3.236,2.423,3.236S138.024,47.325,138.024,45.378z"/>
	<path fill="#BBBBBB" d="M145.108,48.95v-3.88c0-1.723-0.252-2.928-1.877-2.928c-1.219,0-1.779,0.63-2.325,1.723v5.085h-0.561
		v-5.281c0-0.616-0.07-1.275-0.224-1.835l0.49-0.084c0.14,0.378,0.224,0.826,0.252,1.303c0.49-0.854,1.134-1.415,2.451-1.415
		c2.059,0,2.353,1.737,2.353,3.264v4.048H145.108z"/>
	<path fill="#BBBBBB" d="M156.448,49.02l-1.877-6.471l-1.961,6.471h-0.658l-2.199-7.129l0.546-0.14l1.989,6.625l1.961-6.514
		l0.644-0.098l1.891,6.612l1.933-6.625l0.546,0.126l-2.157,7.144H156.448z"/>
	<path fill="#BBBBBB" d="M160.561,39.859c0-0.266,0.154-0.392,0.42-0.392s0.42,0.126,0.42,0.392s-0.154,0.392-0.42,0.392
		S160.561,40.125,160.561,39.859z M160.939,48.95c-0.196-0.687-0.238-1.541-0.238-2.479v-4.58l0.56-0.084v4.693
		c0,0.868,0.042,1.765,0.238,2.451H160.939z"/>
	<path fill="#BBBBBB" d="M165.224,49.118c-1.079-0.882-1.219-1.821-1.219-3.754v-3.04h-1.303v-0.519h1.303v-2.255l0.561-0.084v2.339
		h1.653l-0.07,0.519h-1.583v3.306c0,1.373,0.028,2.297,1.05,3.124L165.224,49.118z"/>
	<path fill="#BBBBBB" d="M172.422,48.95v-3.88c0-1.723-0.28-2.928-1.905-2.928c-1.218,0-1.751,0.63-2.297,1.723v5.085h-0.561v-9.974
		l0.561-0.084v4.146c0.49-0.911,1.121-1.401,2.381-1.401c1.779,0,2.381,1.261,2.381,3.264v4.048H172.422z"/>
	<path fill="#BBBBBB" d="M36.188,66.992l-0.84-2.605h-4.174l-0.826,2.563h-0.603l3.222-9.777l0.588-0.07l3.236,9.819L36.188,66.992z
		 M33.261,57.887l-1.919,5.953h3.824L33.261,57.887z"/>
	<path fill="#BBBBBB" d="M47.404,66.95v-3.88c0-1.723-0.224-2.928-1.835-2.928c-1.191,0-1.779,0.616-2.227,1.723v5.085h-0.561v-4.51
		c0-1.597-0.63-2.297-1.835-2.297c-1.19,0-1.695,0.63-2.227,1.723v5.085h-0.561v-5.281c0-0.616-0.07-1.275-0.224-1.835l0.49-0.084
		c0.14,0.378,0.224,0.826,0.252,1.303c0.49-0.869,1.079-1.415,2.353-1.415c1.219,0,1.905,0.701,2.101,1.639
		c0.519-1.191,1.275-1.639,2.521-1.639c1.779,0,2.311,1.261,2.311,3.264v4.048H47.404z"/>
	<path fill="#BBBBBB" d="M54.625,67.006c-0.14-0.378-0.224-0.827-0.252-1.303c-0.49,0.854-1.135,1.415-2.451,1.415
		c-1.821,0-2.354-0.84-2.354-2.045c0-1.695,1.485-2.087,4.763-2.213v-0.168c0-1.905-0.911-2.535-2.031-2.535
		c-0.714,0-1.387,0.112-1.989,0.462l-0.21-0.49c0.63-0.378,1.429-0.49,2.255-0.49c1.443,0,2.536,0.84,2.536,2.899v2.55
		c0,0.616,0.07,1.274,0.224,1.835L54.625,67.006z M54.331,63.378c-2.773,0.14-4.188,0.336-4.188,1.709
		c0,1.064,0.476,1.527,1.863,1.527c1.219,0,1.779-0.63,2.325-1.723V63.378z"/>
	<path fill="#BBBBBB" d="M56.526,66.95L56.4,66.446l4.329-6.135H56.61v-0.504h4.707l0.098,0.504l-4.329,6.135h4.497l-0.056,0.504
		H56.526z"/>
	<path fill="#BBBBBB" d="M62.812,63.378c0-2.549,0.841-3.74,2.984-3.74s2.983,1.191,2.983,3.74s-0.84,3.74-2.983,3.74
		S62.812,65.928,62.812,63.378z M68.219,63.378c0-1.947-0.406-3.236-2.423-3.236s-2.423,1.289-2.423,3.236
		c0,1.947,0.406,3.236,2.423,3.236S68.219,65.325,68.219,63.378z"/>
	<path fill="#BBBBBB" d="M75.303,66.95v-3.88c0-1.723-0.252-2.928-1.877-2.928c-1.219,0-1.779,0.63-2.325,1.723v5.085H70.54v-5.281
		c0-0.616-0.07-1.275-0.224-1.835l0.49-0.084c0.14,0.378,0.224,0.826,0.252,1.303c0.49-0.854,1.134-1.415,2.451-1.415
		c2.059,0,2.353,1.737,2.353,3.264v4.048H75.303z"/>
	<path fill="#BBBBBB" d="M77.33,68.911l0.994-4.384l0.63-0.028l-1.176,4.412H77.33z"/>
	<path fill="#BBBBBB" d="M90.312,67.02l-2.199-8.895l-2.241,8.895h-0.658l-2.536-9.819l0.603-0.112l2.269,9.077l2.227-8.979
		l0.672-0.098l2.199,9.077l2.228-9.063l0.602,0.084L90.97,67.02H90.312z"/>
	<path fill="#BBBBBB" d="M99.019,67.006c-0.14-0.378-0.224-0.827-0.252-1.303c-0.49,0.854-1.135,1.415-2.451,1.415
		c-1.821,0-2.354-0.84-2.354-2.045c0-1.695,1.485-2.087,4.763-2.213v-0.168c0-1.905-0.911-2.535-2.031-2.535
		c-0.714,0-1.387,0.112-1.989,0.462l-0.21-0.49c0.63-0.378,1.429-0.49,2.255-0.49c1.443,0,2.536,0.84,2.536,2.899v2.55
		c0,0.616,0.07,1.274,0.224,1.835L99.019,67.006z M98.725,63.378c-2.773,0.14-4.188,0.336-4.188,1.709
		c0,1.064,0.476,1.527,1.863,1.527c1.219,0,1.779-0.63,2.325-1.723V63.378z"/>
	<path fill="#BBBBBB" d="M101.606,66.95c-0.196-0.687-0.238-1.541-0.238-2.479v-7.494l0.56-0.084v7.606
		c0,0.868,0.042,1.765,0.238,2.451H101.606z"/>
	<path fill="#BBBBBB" d="M113.273,66.95v-3.88c0-1.723-0.224-2.928-1.835-2.928c-1.191,0-1.779,0.616-2.227,1.723v5.085h-0.561
		v-4.51c0-1.597-0.63-2.297-1.835-2.297c-1.19,0-1.695,0.63-2.227,1.723v5.085h-0.561v-5.281c0-0.616-0.07-1.275-0.224-1.835
		l0.49-0.084c0.14,0.378,0.224,0.826,0.252,1.303c0.49-0.869,1.079-1.415,2.353-1.415c1.219,0,1.905,0.701,2.101,1.639
		c0.519-1.191,1.275-1.639,2.521-1.639c1.779,0,2.311,1.261,2.311,3.264v4.048H113.273z"/>
	<path fill="#BBBBBB" d="M120.495,67.006c-0.14-0.378-0.224-0.827-0.252-1.303c-0.49,0.854-1.135,1.415-2.451,1.415
		c-1.821,0-2.354-0.84-2.354-2.045c0-1.695,1.485-2.087,4.763-2.213v-0.168c0-1.905-0.911-2.535-2.031-2.535
		c-0.714,0-1.387,0.112-1.989,0.462l-0.21-0.49c0.63-0.378,1.429-0.49,2.255-0.49c1.443,0,2.536,0.84,2.536,2.899v2.55
		c0,0.616,0.07,1.274,0.224,1.835L120.495,67.006z M120.2,63.378c-2.773,0.14-4.188,0.336-4.188,1.709
		c0,1.064,0.476,1.527,1.863,1.527c1.219,0,1.779-0.63,2.325-1.723V63.378z"/>
	<path fill="#BBBBBB" d="M122.773,66.95v-5.281c0-0.616-0.07-1.275-0.224-1.835l0.49-0.084c0.14,0.378,0.224,0.966,0.252,1.457
		c0.448-0.896,1.079-1.429,2.213-1.555l0.07,0.616c-1.191,0.07-1.709,0.672-2.241,1.723v4.958H122.773z"/>
	<path fill="#BBBBBB" d="M128.809,67.118c-1.079-0.882-1.219-1.821-1.219-3.754v-3.04h-1.303v-0.519h1.303v-2.255l0.561-0.084v2.339
		h1.653l-0.07,0.519h-1.583v3.306c0,1.373,0.028,2.297,1.05,3.124L128.809,67.118z"/>
	<path fill="#BBBBBB" d="M130.432,68.911l0.995-4.384l0.63-0.028l-1.177,4.412H130.432z"/>
	<path fill="#BBBBBB" d="M139.058,66.95v-9.259h-3.04v-0.546h6.653v0.546h-3.04v9.259H139.058z"/>
	<path fill="#BBBBBB" d="M147.123,67.006c-0.14-0.378-0.224-0.827-0.252-1.303c-0.49,0.854-1.135,1.415-2.451,1.415
		c-1.821,0-2.354-0.84-2.354-2.045c0-1.695,1.485-2.087,4.763-2.213v-0.168c0-1.905-0.911-2.535-2.031-2.535
		c-0.714,0-1.387,0.112-1.989,0.462l-0.21-0.49c0.63-0.378,1.429-0.49,2.255-0.49c1.443,0,2.536,0.84,2.536,2.899v2.55
		c0,0.616,0.07,1.274,0.224,1.835L147.123,67.006z M146.828,63.378c-2.773,0.14-4.188,0.336-4.188,1.709
		c0,1.064,0.476,1.527,1.863,1.527c1.219,0,1.779-0.63,2.325-1.723V63.378z"/>
	<path fill="#BBBBBB" d="M149.401,66.95v-5.281c0-0.616-0.07-1.275-0.224-1.835l0.49-0.084c0.14,0.378,0.224,0.966,0.252,1.457
		c0.448-0.896,1.079-1.429,2.213-1.555l0.07,0.616c-1.191,0.07-1.709,0.672-2.241,1.723v4.958H149.401z"/>
	<path fill="#BBBBBB" d="M156.109,68.771c1.401,0,1.891-0.868,1.891-2.087v-0.953c-0.49,0.911-1.121,1.387-2.381,1.387
		c-1.807,0-2.521-1.4-2.521-3.74c0-3.152,1.429-3.74,2.844-3.74c0.896,0,1.835,0.112,2.62,0.392v6.682
		c0,1.555-0.729,2.563-2.41,2.563c-0.714,0-1.4-0.098-2.003-0.378l0.196-0.504C154.904,68.659,155.507,68.771,156.109,68.771z
		 M158,60.437c-0.616-0.238-1.317-0.294-2.059-0.294c-1.233,0-2.283,0.504-2.283,3.236c0,2.017,0.49,3.236,2.045,3.236
		c1.219,0,1.751-0.63,2.297-1.723V60.437z"/>
	<path fill="#BBBBBB" d="M165.616,66.558c-0.672,0.406-1.442,0.56-2.325,0.56c-1.639,0-2.97-0.686-2.97-3.726
		c0-3.278,1.541-3.754,2.858-3.754c1.695,0,2.731,0.924,2.731,3.74v0.056l-5.015,0.406c0.084,2.297,1.106,2.774,2.409,2.774
		c0.784,0,1.429-0.154,2.101-0.533L165.616,66.558z M165.336,62.972c-0.028-2.157-0.869-2.83-2.157-2.83
		c-1.191,0-2.297,0.462-2.297,3.054v0.14L165.336,62.972z"/>
	<path fill="#BBBBBB" d="M169.493,67.118c-1.079-0.882-1.219-1.821-1.219-3.754v-3.04h-1.303v-0.519h1.303v-2.255l0.561-0.084v2.339
		h1.653l-0.07,0.519h-1.583v3.306c0,1.373,0.028,2.297,1.05,3.124L169.493,67.118z"/>
	<path fill="#BBBBBB" d="M171.115,68.911l0.995-4.384l0.63-0.028l-1.177,4.412H171.115z"/>
	<path fill="#BBBBBB" d="M30.417,75.271c0.714-0.182,1.583-0.308,2.438-0.308c1.779,0,3.46,0.602,3.46,2.815
		c0,1.303-0.701,2.031-1.709,2.171c1.022,0.098,2.087,0.756,2.087,2.409c0,1.765-1.092,2.591-3.096,2.591h-3.18V75.271z
		 M33.331,79.697c1.064,0,2.409-0.252,2.409-1.905c0-1.821-1.4-2.283-2.843-2.283c-0.672,0-1.345,0.084-1.905,0.224v3.964H33.331z
		 M33.008,84.404c2.045,0,3.096-0.392,3.096-2.087c0-1.737-1.4-2.073-2.773-2.073h-2.339v4.16H33.008z"/>
	<path fill="#BBBBBB" d="M43.216,84.558c-0.672,0.406-1.442,0.56-2.325,0.56c-1.639,0-2.97-0.686-2.97-3.726
		c0-3.278,1.541-3.754,2.858-3.754c1.695,0,2.731,0.924,2.731,3.74v0.056l-5.015,0.406c0.084,2.297,1.106,2.774,2.409,2.774
		c0.784,0,1.429-0.154,2.101-0.533L43.216,84.558z M42.936,80.972c-0.028-2.157-0.869-2.83-2.157-2.83
		c-1.191,0-2.297,0.462-2.297,3.054v0.14L42.936,80.972z"/>
	<path fill="#BBBBBB" d="M47.331,84.614c0.938,0,1.793-0.378,1.793-1.555c0-0.98-0.883-1.205-1.961-1.499
		c-1.134-0.309-2.087-0.714-2.087-2.059s1.064-1.863,2.213-1.863c0.658,0,1.331,0.07,1.961,0.392l-0.21,0.477
		c-0.518-0.266-1.12-0.364-1.737-0.364c-0.953,0-1.681,0.308-1.681,1.373c0,0.925,0.658,1.219,1.779,1.527
		c1.219,0.35,2.269,0.658,2.269,2.017c0,1.513-1.079,2.059-2.311,2.059c-0.953,0-1.821-0.182-2.535-0.658l0.238-0.462
		C45.678,84.39,46.49,84.614,47.331,84.614z"/>
	<path fill="#BBBBBB" d="M53.126,85.118c-1.079-0.882-1.219-1.821-1.219-3.754v-3.04h-1.303v-0.519h1.303v-2.255l0.561-0.084v2.339
		h1.653l-0.07,0.519h-1.583v3.306c0,1.373,0.028,2.297,1.05,3.124L53.126,85.118z"/>
	<path fill="#BBBBBB" d="M58.375,75.271c0.714-0.182,1.583-0.308,2.438-0.308c1.779,0,3.46,0.602,3.46,2.815
		c0,1.303-0.701,2.031-1.709,2.171c1.022,0.098,2.087,0.756,2.087,2.409c0,1.765-1.092,2.591-3.096,2.591h-3.18V75.271z
		 M61.289,79.697c1.064,0,2.409-0.252,2.409-1.905c0-1.821-1.4-2.283-2.843-2.283c-0.672,0-1.345,0.084-1.905,0.224v3.964H61.289z
		 M60.967,84.404c2.045,0,3.096-0.392,3.096-2.087c0-1.737-1.4-2.073-2.773-2.073H58.95v4.16H60.967z"/>
	<path fill="#BBBBBB" d="M71.104,85.006c-0.14-0.378-0.224-0.827-0.252-1.303c-0.491,0.854-1.135,1.415-2.452,1.415
		c-2.059,0-2.353-1.737-2.353-3.264v-3.964l0.56-0.084v3.88c0,1.723,0.252,2.928,1.877,2.928c1.219,0,1.779-0.63,2.325-1.723v-5
		l0.561-0.084v5.281c0,0.616,0.07,1.274,0.224,1.835L71.104,85.006z"/>
	<path fill="#BBBBBB" d="M73.566,86.785c0.868-0.434,1.316-1.022,1.569-1.835l-2.396-7.088l0.588-0.112l2.115,6.597l2.129-6.597
		l0.546,0.126l-2.269,6.808c-0.392,1.19-1.022,2.073-2.017,2.549L73.566,86.785z"/>
	<path fill="#BBBBBB" d="M87.036,85.006c-0.14-0.378-0.224-0.827-0.252-1.303c-0.49,0.854-1.134,1.415-2.451,1.415
		c-1.821,0-2.354-0.84-2.354-2.045c0-1.695,1.485-2.087,4.763-2.213v-0.168c0-1.905-0.911-2.535-2.031-2.535
		c-0.714,0-1.387,0.112-1.989,0.462l-0.21-0.49c0.63-0.378,1.429-0.49,2.255-0.49c1.443,0,2.536,0.84,2.536,2.899v2.55
		c0,0.616,0.07,1.274,0.224,1.835L87.036,85.006z M86.742,81.378c-2.773,0.14-4.188,0.336-4.188,1.709
		c0,1.064,0.476,1.527,1.863,1.527c1.219,0,1.779-0.63,2.325-1.723V81.378z"/>
	<path fill="#BBBBBB" d="M94.078,84.95v-3.88c0-1.723-0.252-2.928-1.877-2.928c-1.219,0-1.779,0.63-2.325,1.723v5.085h-0.561v-5.281
		c0-0.616-0.07-1.275-0.224-1.835l0.49-0.084c0.14,0.378,0.224,0.826,0.252,1.303c0.49-0.854,1.134-1.415,2.451-1.415
		c2.059,0,2.353,1.737,2.353,3.264v4.048H94.078z"/>
	<path fill="#BBBBBB" d="M101.483,85.006c-0.126-0.378-0.196-0.827-0.224-1.345c-0.504,0.896-1.135,1.457-2.452,1.457
		c-1.807,0-2.521-1.4-2.521-3.74c0-3.152,1.429-3.74,2.844-3.74c0.771,0,1.387,0.154,2.059,0.476v-3.138l0.561-0.084v8.195
		c0,0.616,0.07,1.274,0.224,1.835L101.483,85.006z M101.189,78.675c-0.672-0.378-1.373-0.532-2.059-0.532
		c-1.233,0-2.283,0.504-2.283,3.236c0,2.017,0.49,3.236,2.045,3.236c1.219,0,1.751-0.63,2.297-1.723V78.675z"/>
	<path fill="#BBBBBB" d="M115.85,84.95v-3.88c0-1.723-0.224-2.928-1.835-2.928c-1.191,0-1.779,0.616-2.227,1.723v5.085h-0.561v-4.51
		c0-1.597-0.63-2.297-1.835-2.297c-1.19,0-1.695,0.63-2.227,1.723v5.085h-0.561v-5.281c0-0.616-0.07-1.275-0.224-1.835l0.49-0.084
		c0.14,0.378,0.224,0.826,0.252,1.303c0.49-0.869,1.079-1.415,2.353-1.415c1.219,0,1.905,0.701,2.101,1.639
		c0.519-1.191,1.275-1.639,2.521-1.639c1.779,0,2.311,1.261,2.311,3.264v4.048H115.85z"/>
	<path fill="#BBBBBB" d="M123.282,85.006c-0.14-0.378-0.224-0.827-0.252-1.303c-0.49,0.854-1.134,1.415-2.451,1.415
		c-2.059,0-2.353-1.737-2.353-3.264v-3.964l0.56-0.084v3.88c0,1.723,0.252,2.928,1.877,2.928c1.219,0,1.779-0.63,2.325-1.723v-5
		l0.561-0.084v5.281c0,0.616,0.07,1.274,0.224,1.835L123.282,85.006z"/>
	<path fill="#BBBBBB" d="M129.987,84.754c-0.56,0.294-1.135,0.364-1.695,0.364c-2.143,0-2.984-1.19-2.984-3.74
		s0.841-3.74,2.984-3.74c0.56,0,1.135,0.07,1.695,0.364l-0.21,0.504c-0.477-0.252-0.967-0.336-1.485-0.336
		c-2.017,0-2.423,1.261-2.423,3.208c0,1.947,0.406,3.208,2.423,3.208c0.518,0,1.008-0.084,1.485-0.336L129.987,84.754z"/>
	<path fill="#BBBBBB" d="M136.357,84.95v-3.88c0-1.723-0.28-2.928-1.905-2.928c-1.218,0-1.751,0.63-2.297,1.723v5.085h-0.561v-9.974
		l0.561-0.084v4.146c0.49-0.911,1.121-1.401,2.381-1.401c1.779,0,2.381,1.261,2.381,3.264v4.048H136.357z"/>
	<path fill="#BBBBBB" d="M150.906,84.95v-3.88c0-1.723-0.224-2.928-1.835-2.928c-1.191,0-1.779,0.616-2.227,1.723v5.085h-0.561
		v-4.51c0-1.597-0.63-2.297-1.835-2.297c-1.19,0-1.695,0.63-2.227,1.723v5.085h-0.561v-5.281c0-0.616-0.07-1.275-0.224-1.835
		l0.49-0.084c0.14,0.378,0.224,0.826,0.252,1.303c0.49-0.869,1.079-1.415,2.353-1.415c1.219,0,1.905,0.701,2.101,1.639
		c0.519-1.191,1.275-1.639,2.521-1.639c1.779,0,2.311,1.261,2.311,3.264v4.048H150.906z"/>
	<path fill="#BBBBBB" d="M153.112,81.378c0-2.549,0.841-3.74,2.984-3.74s2.983,1.191,2.983,3.74s-0.84,3.74-2.983,3.74
		S153.112,83.928,153.112,81.378z M158.52,81.378c0-1.947-0.406-3.236-2.423-3.236s-2.423,1.289-2.423,3.236
		c0,1.947,0.406,3.236,2.423,3.236S158.52,83.325,158.52,81.378z"/>
	<path fill="#BBBBBB" d="M160.84,84.95v-5.281c0-0.616-0.07-1.275-0.224-1.835l0.49-0.084c0.14,0.378,0.224,0.966,0.252,1.457
		c0.448-0.896,1.079-1.429,2.213-1.555l0.07,0.616c-1.191,0.07-1.709,0.672-2.241,1.723v4.958H160.84z"/>
	<path fill="#BBBBBB" d="M169.831,84.558c-0.672,0.406-1.442,0.56-2.325,0.56c-1.639,0-2.97-0.686-2.97-3.726
		c0-3.278,1.541-3.754,2.858-3.754c1.695,0,2.731,0.924,2.731,3.74v0.056l-5.015,0.406c0.084,2.297,1.106,2.774,2.409,2.774
		c0.784,0,1.429-0.154,2.101-0.533L169.831,84.558z M169.551,80.972c-0.028-2.157-0.869-2.83-2.157-2.83
		c-1.191,0-2.297,0.462-2.297,3.054v0.14L169.551,80.972z"/>
</g>
<path fill="none" stroke="#BBBBBB" stroke-miterlimit="10" d="M183.395,169.898c-20.542-15.544-39.085-30.5-39.085-76"/>
<g>
	<rect x="690.395" y="27.898" fill="none" width="125.605" height="54"/>
	<path fill="#BBBBBB" d="M691.417,27.977l0.561-0.084v4.146c0.49-0.911,1.12-1.401,2.381-1.401c1.808,0,2.521,1.401,2.521,3.74
		c0,3.151-1.429,3.74-2.844,3.74c-0.896,0-1.835-0.112-2.619-0.392V27.977z M694.036,37.614c1.233,0,2.283-0.504,2.283-3.236
		c0-2.017-0.49-3.236-2.045-3.236c-1.219,0-1.751,0.63-2.297,1.723v4.455C692.594,37.558,693.294,37.614,694.036,37.614z"/>
	<path fill="#BBBBBB" d="M703.585,38.006c-0.14-0.378-0.224-0.827-0.252-1.303c-0.49,0.854-1.135,1.415-2.451,1.415
		c-2.059,0-2.354-1.737-2.354-3.264v-3.964l0.561-0.084v3.88c0,1.723,0.252,2.928,1.877,2.928c1.219,0,1.779-0.63,2.325-1.723v-5
		l0.561-0.084v5.281c0,0.616,0.07,1.274,0.224,1.835L703.585,38.006z"/>
	<path fill="#BBBBBB" d="M705.822,28.859c0-0.266,0.154-0.392,0.421-0.392c0.266,0,0.42,0.126,0.42,0.392s-0.154,0.392-0.42,0.392
		C705.977,29.251,705.822,29.125,705.822,28.859z M706.201,37.95c-0.196-0.687-0.238-1.541-0.238-2.479v-4.58l0.561-0.084v4.693
		c0,0.868,0.042,1.765,0.237,2.451H706.201z"/>
	<path fill="#BBBBBB" d="M708.945,37.95c-0.196-0.687-0.238-1.541-0.238-2.479v-7.494l0.561-0.084v7.606
		c0,0.868,0.042,1.765,0.237,2.451H708.945z"/>
	<path fill="#BBBBBB" d="M713.215,38.118c-1.078-0.882-1.218-1.821-1.218-3.754v-3.04h-1.303v-0.519h1.303v-2.255l0.56-0.084v2.339
		h1.653l-0.07,0.519h-1.583v3.306c0,1.373,0.028,2.297,1.051,3.124L713.215,38.118z"/>
	<path fill="#BBBBBB" d="M715.608,34.224v-0.546h4.272v0.546H715.608z"/>
	<path fill="#BBBBBB" d="M721.81,28.859c0-0.266,0.154-0.392,0.421-0.392c0.266,0,0.42,0.126,0.42,0.392s-0.154,0.392-0.42,0.392
		C721.964,29.251,721.81,29.125,721.81,28.859z M722.188,37.95c-0.196-0.687-0.238-1.541-0.238-2.479v-4.58l0.561-0.084v4.693
		c0,0.868,0.042,1.765,0.237,2.451H722.188z"/>
	<path fill="#BBBBBB" d="M729.387,37.95v-3.88c0-1.723-0.252-2.928-1.877-2.928c-1.219,0-1.779,0.63-2.325,1.723v5.085h-0.561
		v-5.281c0-0.616-0.07-1.275-0.224-1.835l0.49-0.084c0.14,0.378,0.224,0.826,0.252,1.303c0.49-0.854,1.135-1.415,2.451-1.415
		c2.059,0,2.354,1.737,2.354,3.264v4.048H729.387z"/>
	<path fill="#BBBBBB" d="M734.409,34.378c0-2.549,0.841-3.74,2.983-3.74c2.144,0,2.984,1.191,2.984,3.74s-0.841,3.74-2.984,3.74
		C735.25,38.118,734.409,36.928,734.409,34.378z M739.816,34.378c0-1.947-0.406-3.236-2.424-3.236c-2.017,0-2.423,1.289-2.423,3.236
		c0,1.947,0.406,3.236,2.423,3.236C739.41,37.614,739.816,36.325,739.816,34.378z"/>
	<path fill="#BBBBBB" d="M742.138,37.95v-5.281c0-0.616-0.07-1.275-0.224-1.835l0.49-0.084c0.14,0.378,0.224,0.966,0.252,1.457
		c0.448-0.896,1.078-1.429,2.213-1.555l0.07,0.616c-1.19,0.07-1.709,0.672-2.241,1.723v4.958H742.138z"/>
	<path fill="#BBBBBB" d="M751.03,38.006c-0.126-0.378-0.196-0.827-0.225-1.345c-0.504,0.896-1.135,1.457-2.451,1.457
		c-1.807,0-2.521-1.4-2.521-3.74c0-3.152,1.429-3.74,2.844-3.74c0.771,0,1.387,0.154,2.06,0.476v-3.138l0.56-0.084v8.195
		c0,0.616,0.07,1.274,0.225,1.835L751.03,38.006z M750.736,31.675c-0.673-0.378-1.373-0.532-2.06-0.532
		c-1.232,0-2.283,0.504-2.283,3.236c0,2.017,0.49,3.236,2.045,3.236c1.219,0,1.751-0.63,2.298-1.723V31.675z"/>
	<path fill="#BBBBBB" d="M758.352,37.558c-0.672,0.406-1.442,0.56-2.325,0.56c-1.639,0-2.97-0.686-2.97-3.726
		c0-3.278,1.541-3.754,2.857-3.754c1.695,0,2.731,0.924,2.731,3.74v0.056l-5.015,0.406c0.084,2.297,1.106,2.774,2.409,2.774
		c0.785,0,1.429-0.154,2.102-0.533L758.352,37.558z M758.071,33.972c-0.027-2.157-0.868-2.83-2.157-2.83
		c-1.19,0-2.297,0.462-2.297,3.054v0.14L758.071,33.972z"/>
	<path fill="#BBBBBB" d="M760.379,37.95v-5.281c0-0.616-0.07-1.275-0.224-1.835l0.49-0.084c0.14,0.378,0.224,0.966,0.252,1.457
		c0.448-0.896,1.078-1.429,2.213-1.555l0.07,0.616c-1.19,0.07-1.709,0.672-2.241,1.723v4.958H760.379z"/>
	<path fill="#BBBBBB" d="M769.227,38.118c-1.078-0.882-1.218-1.821-1.218-3.754v-3.04h-1.303v-0.519h1.303v-2.255l0.56-0.084v2.339
		h1.653l-0.07,0.519h-1.583v3.306c0,1.373,0.028,2.297,1.051,3.124L769.227,38.118z"/>
	<path fill="#BBBBBB" d="M771.662,37.95v-5.281c0-0.616-0.07-1.275-0.224-1.835l0.49-0.084c0.14,0.378,0.224,0.966,0.252,1.457
		c0.448-0.896,1.078-1.429,2.213-1.555l0.07,0.616c-1.19,0.07-1.709,0.672-2.241,1.723v4.958H771.662z"/>
	<path fill="#BBBBBB" d="M780.232,38.006c-0.14-0.378-0.224-0.827-0.252-1.303c-0.49,0.854-1.135,1.415-2.451,1.415
		c-1.821,0-2.354-0.84-2.354-2.045c0-1.695,1.485-2.087,4.763-2.213v-0.168c0-1.905-0.91-2.535-2.031-2.535
		c-0.714,0-1.387,0.112-1.989,0.462l-0.21-0.49c0.631-0.378,1.429-0.49,2.256-0.49c1.442,0,2.535,0.84,2.535,2.899v2.55
		c0,0.616,0.07,1.274,0.224,1.835L780.232,38.006z M779.938,34.378c-2.773,0.14-4.188,0.336-4.188,1.709
		c0,1.064,0.477,1.527,1.863,1.527c1.219,0,1.779-0.63,2.325-1.723V34.378z"/>
	<path fill="#BBBBBB" d="M786.91,37.754c-0.561,0.294-1.135,0.364-1.695,0.364c-2.143,0-2.983-1.19-2.983-3.74
		s0.841-3.74,2.983-3.74c0.561,0,1.135,0.07,1.695,0.364l-0.21,0.504c-0.477-0.252-0.967-0.336-1.485-0.336
		c-2.017,0-2.423,1.261-2.423,3.208c0,1.947,0.406,3.208,2.423,3.208c0.519,0,1.009-0.084,1.485-0.336L786.91,37.754z"/>
	<path fill="#BBBBBB" d="M792.552,38.048l-3.474-3.95v3.852h-0.561v-9.974l0.561-0.084v5.996l3.306-3.18l0.435,0.308L789.723,34
		l3.333,3.768L792.552,38.048z"/>
	<path fill="#BBBBBB" d="M794.355,28.859c0-0.266,0.154-0.392,0.421-0.392c0.266,0,0.42,0.126,0.42,0.392s-0.154,0.392-0.42,0.392
		C794.51,29.251,794.355,29.125,794.355,28.859z M794.734,37.95c-0.196-0.687-0.238-1.541-0.238-2.479v-4.58l0.561-0.084v4.693
		c0,0.868,0.042,1.765,0.237,2.451H794.734z"/>
	<path fill="#BBBBBB" d="M801.933,37.95v-3.88c0-1.723-0.252-2.928-1.877-2.928c-1.219,0-1.779,0.63-2.325,1.723v5.085h-0.561
		v-5.281c0-0.616-0.07-1.275-0.224-1.835l0.49-0.084c0.14,0.378,0.224,0.826,0.252,1.303c0.49-0.854,1.135-1.415,2.451-1.415
		c2.06,0,2.354,1.737,2.354,3.264v4.048H801.933z"/>
	<path fill="#BBBBBB" d="M807.153,39.771c1.401,0,1.892-0.868,1.892-2.087v-0.953c-0.49,0.911-1.121,1.387-2.382,1.387
		c-1.807,0-2.521-1.4-2.521-3.74c0-3.152,1.429-3.74,2.844-3.74c0.896,0,1.835,0.112,2.619,0.392v6.682
		c0,1.555-0.729,2.563-2.409,2.563c-0.714,0-1.4-0.098-2.003-0.378l0.196-0.504C805.949,39.659,806.551,39.771,807.153,39.771z
		 M809.045,31.437c-0.617-0.238-1.317-0.294-2.06-0.294c-1.232,0-2.283,0.504-2.283,3.236c0,2.017,0.49,3.236,2.045,3.236
		c1.219,0,1.751-0.63,2.298-1.723V31.437z"/>
	<path fill="#BBBBBB" d="M696.151,56.006c-0.14-0.378-0.224-0.827-0.252-1.303c-0.49,0.854-1.135,1.415-2.451,1.415
		c-1.821,0-2.354-0.84-2.354-2.045c0-1.695,1.485-2.087,4.763-2.213v-0.168c0-1.905-0.91-2.535-2.031-2.535
		c-0.714,0-1.387,0.112-1.989,0.462l-0.21-0.49c0.631-0.378,1.429-0.49,2.256-0.49c1.442,0,2.535,0.84,2.535,2.899v2.55
		c0,0.616,0.07,1.274,0.224,1.835L696.151,56.006z M695.857,52.378c-2.773,0.14-4.188,0.336-4.188,1.709
		c0,1.064,0.477,1.527,1.863,1.527c1.219,0,1.779-0.63,2.325-1.723V52.378z"/>
	<path fill="#BBBBBB" d="M703.193,55.95v-3.88c0-1.723-0.252-2.928-1.877-2.928c-1.219,0-1.779,0.63-2.325,1.723v5.085h-0.561
		v-5.281c0-0.616-0.07-1.275-0.224-1.835l0.49-0.084c0.14,0.378,0.224,0.826,0.252,1.303c0.49-0.854,1.135-1.415,2.451-1.415
		c2.059,0,2.354,1.737,2.354,3.264v4.048H703.193z"/>
	<path fill="#BBBBBB" d="M710.6,56.006c-0.126-0.378-0.196-0.827-0.225-1.345c-0.504,0.896-1.135,1.457-2.451,1.457
		c-1.807,0-2.521-1.4-2.521-3.74c0-3.152,1.429-3.74,2.844-3.74c0.771,0,1.387,0.154,2.06,0.476v-3.138l0.56-0.084v8.195
		c0,0.616,0.07,1.274,0.225,1.835L710.6,56.006z M710.306,49.675c-0.673-0.378-1.373-0.532-2.06-0.532
		c-1.232,0-2.283,0.504-2.283,3.236c0,2.017,0.49,3.236,2.045,3.236c1.219,0,1.751-0.63,2.298-1.723V49.675z"/>
	<path fill="#BBBBBB" d="M717.807,55.614c0.938,0,1.793-0.378,1.793-1.555c0-0.98-0.882-1.205-1.961-1.499
		c-1.135-0.309-2.087-0.714-2.087-2.059s1.064-1.863,2.213-1.863c0.658,0,1.331,0.07,1.961,0.392l-0.21,0.477
		c-0.518-0.266-1.12-0.364-1.736-0.364c-0.953,0-1.682,0.308-1.682,1.373c0,0.925,0.659,1.219,1.779,1.527
		c1.219,0.35,2.27,0.658,2.27,2.017c0,1.513-1.079,2.059-2.312,2.059c-0.952,0-1.821-0.182-2.535-0.658l0.238-0.462
		C716.154,55.39,716.967,55.614,717.807,55.614z"/>
	<path fill="#BBBBBB" d="M723.603,56.118c-1.078-0.882-1.218-1.821-1.218-3.754v-3.04h-1.303v-0.519h1.303v-2.255l0.56-0.084v2.339
		h1.653l-0.07,0.519h-1.583v3.306c0,1.373,0.028,2.297,1.051,3.124L723.603,56.118z"/>
	<path fill="#BBBBBB" d="M730.633,56.006c-0.14-0.378-0.224-0.827-0.252-1.303c-0.49,0.854-1.135,1.415-2.451,1.415
		c-1.821,0-2.354-0.84-2.354-2.045c0-1.695,1.485-2.087,4.763-2.213v-0.168c0-1.905-0.91-2.535-2.031-2.535
		c-0.714,0-1.387,0.112-1.989,0.462l-0.21-0.49c0.631-0.378,1.429-0.49,2.256-0.49c1.442,0,2.535,0.84,2.535,2.899v2.55
		c0,0.616,0.07,1.274,0.224,1.835L730.633,56.006z M730.339,52.378c-2.773,0.14-4.188,0.336-4.188,1.709
		c0,1.064,0.477,1.527,1.863,1.527c1.219,0,1.779-0.63,2.325-1.723V52.378z"/>
	<path fill="#BBBBBB" d="M734.761,56.118c-1.078-0.882-1.218-1.821-1.218-3.754v-3.04h-1.303v-0.519h1.303v-2.255l0.56-0.084v2.339
		h1.653l-0.07,0.519h-1.583v3.306c0,1.373,0.028,2.297,1.051,3.124L734.761,56.118z"/>
	<path fill="#BBBBBB" d="M742.141,56.006c-0.14-0.378-0.224-0.827-0.252-1.303c-0.49,0.854-1.135,1.415-2.451,1.415
		c-2.059,0-2.354-1.737-2.354-3.264v-3.964l0.561-0.084v3.88c0,1.723,0.252,2.928,1.877,2.928c1.219,0,1.779-0.63,2.325-1.723v-5
		l0.561-0.084v5.281c0,0.616,0.07,1.274,0.224,1.835L742.141,56.006z"/>
	<path fill="#BBBBBB" d="M746.535,55.614c0.938,0,1.793-0.378,1.793-1.555c0-0.98-0.882-1.205-1.961-1.499
		c-1.135-0.309-2.087-0.714-2.087-2.059s1.064-1.863,2.213-1.863c0.658,0,1.331,0.07,1.961,0.392l-0.21,0.477
		c-0.518-0.266-1.12-0.364-1.736-0.364c-0.953,0-1.682,0.308-1.682,1.373c0,0.925,0.659,1.219,1.779,1.527
		c1.219,0.35,2.27,0.658,2.27,2.017c0,1.513-1.079,2.059-2.312,2.059c-0.952,0-1.821-0.182-2.535-0.658l0.238-0.462
		C744.883,55.39,745.695,55.614,746.535,55.614z"/>
	<path fill="#BBBBBB" d="M758.24,56.006c-0.14-0.378-0.224-0.827-0.252-1.303c-0.49,0.854-1.135,1.415-2.451,1.415
		c-2.059,0-2.354-1.737-2.354-3.264v-3.964l0.561-0.084v3.88c0,1.723,0.252,2.928,1.877,2.928c1.219,0,1.779-0.63,2.325-1.723v-5
		l0.561-0.084v5.281c0,0.616,0.07,1.274,0.224,1.835L758.24,56.006z"/>
	<path fill="#BBBBBB" d="M760.548,58.107v-7.438c0-0.616-0.07-1.275-0.224-1.835l0.49-0.084c0.14,0.378,0.224,0.826,0.252,1.303
		c0.49-0.854,1.106-1.415,2.423-1.415c1.808,0,2.521,1.401,2.521,3.74c0,3.151-1.429,3.74-2.844,3.74
		c-0.771,0-1.387-0.154-2.059-0.476v2.465H760.548z M763.167,55.614c1.233,0,2.283-0.504,2.283-3.236
		c0-2.017-0.49-3.236-2.045-3.236c-1.219,0-1.751,0.63-2.297,1.723v4.216C761.78,55.46,762.481,55.614,763.167,55.614z"/>
	<path fill="#BBBBBB" d="M772.688,56.006c-0.126-0.378-0.196-0.827-0.225-1.345c-0.504,0.896-1.135,1.457-2.451,1.457
		c-1.807,0-2.521-1.4-2.521-3.74c0-3.152,1.429-3.74,2.844-3.74c0.771,0,1.387,0.154,2.06,0.476v-3.138l0.56-0.084v8.195
		c0,0.616,0.07,1.274,0.225,1.835L772.688,56.006z M772.395,49.675c-0.673-0.378-1.373-0.532-2.06-0.532
		c-1.232,0-2.283,0.504-2.283,3.236c0,2.017,0.49,3.236,2.045,3.236c1.219,0,1.751-0.63,2.298-1.723V49.675z"/>
	<path fill="#BBBBBB" d="M779.729,56.006c-0.14-0.378-0.224-0.827-0.252-1.303c-0.49,0.854-1.135,1.415-2.451,1.415
		c-1.821,0-2.354-0.84-2.354-2.045c0-1.695,1.485-2.087,4.763-2.213v-0.168c0-1.905-0.91-2.535-2.031-2.535
		c-0.714,0-1.387,0.112-1.989,0.462l-0.21-0.49c0.631-0.378,1.429-0.49,2.256-0.49c1.442,0,2.535,0.84,2.535,2.899v2.55
		c0,0.616,0.07,1.274,0.224,1.835L779.729,56.006z M779.436,52.378c-2.773,0.14-4.188,0.336-4.188,1.709
		c0,1.064,0.477,1.527,1.863,1.527c1.219,0,1.779-0.63,2.325-1.723V52.378z"/>
	<path fill="#BBBBBB" d="M783.857,56.118c-1.078-0.882-1.218-1.821-1.218-3.754v-3.04h-1.303v-0.519h1.303v-2.255l0.56-0.084v2.339
		h1.653l-0.07,0.519h-1.583v3.306c0,1.373,0.028,2.297,1.051,3.124L783.857,56.118z"/>
	<path fill="#BBBBBB" d="M791.098,55.558c-0.672,0.406-1.442,0.56-2.325,0.56c-1.639,0-2.97-0.686-2.97-3.726
		c0-3.278,1.541-3.754,2.857-3.754c1.695,0,2.731,0.924,2.731,3.74v0.056l-5.015,0.406c0.084,2.297,1.106,2.774,2.409,2.774
		c0.785,0,1.429-0.154,2.102-0.533L791.098,55.558z M790.817,51.972c-0.027-2.157-0.868-2.83-2.157-2.83
		c-1.19,0-2.297,0.462-2.297,3.054v0.14L790.817,51.972z"/>
	<path fill="#BBBBBB" d="M795.212,55.614c0.938,0,1.793-0.378,1.793-1.555c0-0.98-0.882-1.205-1.961-1.499
		c-1.135-0.309-2.087-0.714-2.087-2.059s1.064-1.863,2.213-1.863c0.658,0,1.331,0.07,1.961,0.392l-0.21,0.477
		c-0.518-0.266-1.12-0.364-1.736-0.364c-0.953,0-1.682,0.308-1.682,1.373c0,0.925,0.659,1.219,1.779,1.527
		c1.219,0.35,2.27,0.658,2.27,2.017c0,1.513-1.079,2.059-2.312,2.059c-0.952,0-1.821-0.182-2.535-0.658l0.238-0.462
		C793.56,55.39,794.372,55.614,795.212,55.614z"/>
</g>
<path fill="none" stroke="#BBBBBB" stroke-miterlimit="10" d="M734.836,177.898c42.729-32,36.779-70.898,38.779-111.898"/>
<g>
</g>
<g>
</g>
<g>
</g>
<g>
</g>
<g>
</g>
<g>
</g>
</svg>
